Coordinates
version=1
nRows=24
nColumns=24
inDegrees=yes

Units are S.I. units (second, meters, Newtons, ...)
Angles are in degrees.

endheader
time	pelvis_tilt	pelvis_list	pelvis_rotation	pelvis_tx	pelvis_ty	pelvis_tz	hip_flexion_r	hip_adduction_r	hip_rotation_r	knee_angle_r	ankle_angle_r	subtalar_angle_r	mtp_angle_r	hip_flexion_l	hip_adduction_l	hip_rotation_l	knee_angle_l	ankle_angle_l	subtalar_angle_l	mtp_angle_l	lumbar_extension	lumbar_bending	lumbar_rotation
      0.69116667	     -3.77520997	     -3.53454844	      1.10088744	     -0.47445716	      0.99216635	      0.29954784	     15.21667749	      7.83102133	     -4.50018697	    -17.89040049	      5.93496580	     -7.74982189	      3.56037409	     25.63511456	     -3.35186059	     -0.98095399	    -70.61215649	     -3.82775710	     -8.61368331	      1.53261732	     -1.17519456	      6.99056364	      4.44369889
      0.69533333	     -3.68467389	     -3.48381338	      1.08377735	     -0.46914626	      0.99314674	      0.29972601	     14.54457459	      7.80262172	     -4.51711701	    -17.44052586	      5.95050915	     -7.50789382	      3.53002781	     26.08437781	     -3.23713005	     -0.89374367	    -70.17956938	     -3.43829470	     -8.92839021	      1.42771061	     -1.33708049	      6.90268917	      4.56544191
      0.69950000	     -3.65381370	     -3.42226824	      1.03379049	     -0.46382847	      0.99401032	      0.29990926	     13.95620172	      7.76383037	     -4.51013650	    -17.03908887	      6.00773978	     -7.35293589	      3.51226762	     26.56493085	     -3.11944909	     -0.84240990	    -69.67183299	     -2.96236202	     -9.24735483	      1.36885136	     -1.39745908	      6.83789797	      4.64739012
      0.70366667	     -3.54777330	     -3.34353016	      0.98818757	     -0.45845642	      0.99499986	      0.30008021	     13.26490448	      7.70610262	     -4.50929305	    -16.59445183	      6.02992893	     -7.12347280	      3.47980393	     26.92035084	     -2.98848143	     -0.80582548	    -69.05517067	     -2.55496648	     -9.56981745	      1.26731031	     -1.53853924	      6.75674736	      4.79093745
      0.70783333	     -3.50603004	     -3.26977577	      0.92662811	     -0.45313180	      0.99581617	      0.30027793	     12.66501471	      7.65603974	     -4.48413067	    -16.19198732	      6.08153385	     -6.93888677	      3.45106581	     27.33218280	     -2.86915202	     -0.77992519	    -68.39161076	     -2.09566492	     -9.88336176	      1.17936294	     -1.61907976	      6.67037941	      4.90975226
      0.71200000	     -3.45866574	     -3.18337640	      0.85900510	     -0.44780100	      0.99661529	      0.30046758	     12.05950412	      7.59142962	     -4.44592761	    -15.79061556	      6.13029879	     -6.75094888	      3.42035440	     27.70597893	     -2.74090067	     -0.77113678	    -67.64676134	     -1.64697034	    -10.19942663	      1.08555761	     -1.70792045	      6.56503176	      5.04329878
      0.71616667	     -3.43200109	     -3.10623690	      0.78654792	     -0.44248995	      0.99732749	      0.30067430	     11.48073542	      7.53923150	     -4.39203525	    -15.39340211	      6.18309537	     -6.57913286	      3.39459539	     28.08392050	     -2.62681916	     -0.76361113	    -66.84642154	     -1.18015223	    -10.51100214	      1.00601685	     -1.78401988	      6.45966754	      5.16622439
      0.72033333	     -3.38063900	     -3.02608350	      0.70321318	     -0.43714527	      0.99805072	      0.30086281	     10.87379082	      7.48084467	     -4.33770671	    -14.99562508	      6.22974220	     -6.40363704	      3.36384012	     28.39636531	     -2.51832578	     -0.77952554	    -65.96115052	     -0.73832990	    -10.81253325	      0.90924669	     -1.86539737	      6.37616601	      5.32077306
      0.72450000	     -3.32520059	     -2.94073018	      0.63144756	     -0.43179179	      0.99873903	      0.30105922	     10.25627021	      7.41549425	     -4.29455148	    -14.58347028	      6.28554145	     -6.20555161	      3.31809496	     28.68082380	     -2.40539169	     -0.79253196	    -65.00789325	     -0.34211024	    -11.10335703	      0.76001954	     -1.95901684	      6.25487769	      5.51907857
      0.72866667	     -3.32634731	     -2.85606428	      0.52022079	     -0.42648248	      0.99927758	      0.30126732	      9.72796770	      7.35271292	     -4.20007125	    -14.22595622	      6.33928370	     -6.05789079	      3.28463642	     29.00070975	     -2.30497239	     -0.83675529	    -64.00001396	      0.12254185	    -11.39973512	      0.64618915	     -1.99265530	      6.17016202	      5.65015047
      0.73283333	     -3.30125275	     -2.76800599	      0.42080687	     -0.42115345	      0.99982621	      0.30146964	      9.16147550	      7.28524565	     -4.11067297	    -13.84740458	      6.39461652	     -5.91746827	      3.25318386	     29.26205936	     -2.20020395	     -0.87700495	    -62.91771453	      0.53618724	    -11.68895379	      0.53278746	     -2.05507572	      6.06898603	      5.80124842
      0.73700000	     -3.26048595	     -2.69120835	      0.33674524	     -0.41579663	      1.00033975	      0.30165547	      8.56928373	      7.22553616	     -4.05238759	    -13.44868517	      6.46049190	     -5.75431794	      3.20573915	     29.48485273	     -2.10798793	     -0.91253581	    -61.77668837	      0.88225817	    -11.96631158	      0.35176901	     -2.12346448	      5.96188040	      6.01480205
      0.74116667	     -3.28032556	     -2.61150970	      0.21398341	     -0.41050232	      1.00069763	      0.30185549	      8.07457644	      7.16489870	     -3.93295398	    -13.11196620	      6.51829355	     -5.63541654	      3.17474942	     29.74742009	     -2.02112516	     -0.96948955	    -60.58134107	      1.28301297	    -12.23504384	      0.22629579	     -2.13744414	      5.88524896	      6.14204279
      0.74533333	     -3.28613872	     -2.52423756	      0.12667052	     -0.40517144	      1.00102660	      0.30198390	      7.56803565	      7.07990747	     -3.92029796	    -12.78543988	      6.65037212	     -5.37958245	      2.37834639	     29.97183294	     -1.90556731	     -0.99890988	    -59.32861862	      1.63798399	    -12.47829158	     -2.95753378	     -2.15181226	      5.77294928	      6.38973455
      0.74950000	     -3.28475787	     -2.47782557	      0.00406886	     -0.39984086	      1.00133909	      0.30221919	      7.02377224	      7.06307319	     -3.75098289	    -12.38790821	      6.67561614	     -5.32908433	      2.37008313	     30.15951764	     -1.86986032	     -1.06437588	    -58.01529798	      1.96335997	    -12.69941336	     -2.97821899	     -2.18674671	      5.72514702	      6.48758560
      0.75366667	     -3.26249910	     -2.42768088	     -0.08892920	     -0.39448706	      1.00161389	      0.30238805	      6.45844597	      7.03076992	     -3.65517833	    -11.99655133	      6.73917875	     -5.29356692	      2.35693539	     30.30270847	     -1.81513574	     -1.11306214	    -56.64497582	      2.20654678	    -12.93709915	     -3.02203080	     -2.23249333	      5.66353783	      6.66303483
      0.75783333	     -3.28422939	     -2.36199981	     -0.20661719	     -0.38915947	      1.00179162	      0.30256990	      5.96184748	      6.98153420	     -3.52350166	    -11.64755888	      6.80566592	     -5.23324005	      2.34540507	     30.45948723	     -1.74737977	     -1.17118058	    -55.20544891	      2.43320954	    -13.15590883	     -3.06799134	     -2.24003074	      5.59356531	      6.80158844
      0.76200000	     -3.28877235	     -2.31182650	     -0.30857982	     -0.38381658	      1.00192236	      0.30272849	      5.44189874	      6.94496078	     -3.42402389	    -11.28776172	      6.88568587	     -5.17363708	      2.33097717	     30.57773950	     -1.69315314	     -1.22271095	    -53.71845970	      2.60572819	    -13.36821511	     -3.12844361	     -2.25441660	      5.53415525	      6.95952758
      0.76616667	     -3.28510466	     -2.28354129	     -0.39961784	     -0.37845372	      1.00202226	      0.30287418	      4.90263129	      6.93134913	     -3.33789035	    -10.90542821	      6.96829272	     -5.13517248	      2.30799561	     30.66582223	     -1.66106536	     -1.27015430	    -52.18469570	      2.73182820	    -13.56392570	     -3.21678344	     -2.28233643	      5.50296262	      7.13595392
      0.77033333	     -3.32112971	     -2.23417048	     -0.51017003	     -0.37311040	      1.00201663	      0.30303116	      4.42826808	      6.89461336	     -3.22251760	    -10.57083046	      7.05995587	     -5.09324732	      2.28979129	     30.76294466	     -1.61075390	     -1.32789870	    -50.58558732	      2.83907782	    -13.71279341	     -3.28914409	     -2.27178522	      5.44886180	      7.24972657
      0.77450000	     -3.31879638	     -2.21606011	     -0.59479070	     -0.36773749	      1.00201502	      0.30316487	      3.89206392	      6.89011234	     -3.14774401	    -10.19176855	      7.15907890	     -5.07563211	      2.26285721	     30.80042276	     -1.58940147	     -1.37848288	    -48.94640193	      2.89155819	    -13.86251745	     -3.38505007	     -2.29567112	      5.43012361	      7.39663222
      0.77866667	     -3.33297151	     -2.18753818	     -0.69069783	     -0.36237079	      1.00194633	      0.30329811	      3.38774001	      6.87356437	     -3.05644575	     -9.84510426	      7.26092358	     -5.05417586	      2.23591202	     30.82443976	     -1.55792955	     -1.43346672	    -47.24808510	      2.91506131	    -13.95722699	     -3.47532135	     -2.30523790	      5.39494155	      7.51028410
      0.78283333	     -3.33468775	     -2.16256796	     -0.77715719	     -0.35698905	      1.00184602	      0.30341076	      2.86779176	      6.85780372	     -2.99192657	     -9.49390461	      7.37312138	     -5.03952125	      2.20356035	     30.80697878	     -1.52648350	     -1.48649537	    -45.49865977	      2.89621519	    -14.04098753	     -3.57315847	     -2.32554104	      5.37177629	      7.62656422
      0.78700000	     -3.33442718	     -2.15354796	     -0.85998044	     -0.35159561	      1.00170035	      0.30352388	      2.34646514	      6.85953521	     -2.93365298	     -9.14708746	      7.49172802	     -5.02432531	      2.17032049	     30.76500409	     -1.51389862	     -1.54441705	    -43.71071975	      2.85478315	    -14.06675401	     -3.66447589	     -2.34708708	      5.36087203	      7.72549449
